<?xml version="1.0" encoding="UTF-8"?>
<svg xmlns="http://www.w3.org/2000/svg" width="554.28" height="134.81" viewBox="0 0 554.28 134.81">
  <title>logo-dark</title>
  <path d="M26.09.66V17.79H46.43l6.23,17.69h82.12V.66ZM0,44.43v91H17.13v-91Z" transform="translate(0.39 -0.66)" fill="#ff6137" fill-rule="evenodd"></path>
  <path d="M120.1,44.44V83.3h3.32V96.44H111.34v4.84a8.55,8.55,0,1,1-10,8.41h3a5.56,5.56,0,1,0,5.56-5.56h-1.49V96.44H98.4V83.3h3.31V44.44h-75v62l12.4-8.43V66.86l13.84-9.43L87.16,80.7V86L66,71.58V75.4L87.16,89.82v5.35L66,80.7v3.82L87.16,99v5.29L66,89.82v3.83l21.21,14.46v5.3L66,99v3.82L87.16,117.2v5.3L66,108.11v3.82l21.21,14.39v5.31L66,117.2V121l21.2,14.41H135.4v-91ZM-.39,17.8H16.74V.67H-.39Zm117.5,26.64h-12.4V83.3h12.4ZM66,130.14l7.79,5.31h5.62L66,126.32Zm-26.86,5.31v-3.82l-5.66,3.82Zm-12.4-9.81,12.4-8.44v-3.82l-12.4,8.43Zm0-9.14,12.41-8.39v-3.83l-12.4,8.4Zm0,18.26,12.4-8.44V122.5l-12.4,8.43Z" transform="translate(0.39 -0.66)" fill="#003c40" fill-rule="evenodd"></path>
  <path d="M192.14,102.57l-16.57-70h11.5l7.12,33.74,4.93,23.3h.29L205,66.26l8.34-33.74H226l8.22,33.74,5.53,23.21h.3l5.13-23.21,7.32-33.74H263.7l-17.23,70H233.66l-8.93-36.25L219.5,45h-.2L214,66.32l-9.08,36.25Z" transform="translate(0.39 -0.66)" fill="#003c40"></path>
  <path d="M277,41.05a6.63,6.63,0,0,1-5-1.6,5.72,5.72,0,0,1-1.56-4.12V33.62A5.69,5.69,0,0,1,272,29.51a6.67,6.67,0,0,1,5-1.61,6.43,6.43,0,0,1,4.92,1.61,5.83,5.83,0,0,1,1.51,4.11v1.71a5.83,5.83,0,0,1-1.51,4.12A6.51,6.51,0,0,1,277,41.05Zm-5.51,9.32h10.94v52.2H271.49Z" transform="translate(0.39 -0.66)" fill="#003c40"></path>
  <path d="M306.74,102.57c-3.76,0-6.55-1-8.39-2.86a11,11,0,0,1-2.77-8V28.3h10.94V93.69h7.25v8.88Z" transform="translate(0.39 -0.66)" fill="#003c40"></path>
  <path d="M332.24,102.57c-3.75,0-6.54-1-8.38-2.86a11,11,0,0,1-2.77-8V28.3h11V93.69h7.22v8.88Z" transform="translate(0.39 -0.66)" fill="#003c40"></path>
  <path d="M347.21,28.3h10.94V59h.51a14.26,14.26,0,0,1,5.56-7.29,16.1,16.1,0,0,1,9.09-2.55q9.94,0,15.37,7.17t5.43,20.15q0,12.93-5.43,20.12t-15.37,7.26a15.88,15.88,0,0,1-9.09-2.66A14.46,14.46,0,0,1,358.66,94h-.51v8.56H347.21ZM370,94.38a11.89,11.89,0,0,0,9.15-3.66,13.65,13.65,0,0,0,3.4-9.69V72a13.65,13.65,0,0,0-3.4-9.69A12,12,0,0,0,370,58.64a13.92,13.92,0,0,0-8.43,2.46,7.61,7.61,0,0,0-3.42,6.47V85.45a7.64,7.64,0,0,0,3.42,6.47A14.07,14.07,0,0,0,370,94.38Z" transform="translate(0.39 -0.66)" fill="#003c40"></path>
  <path d="M435.79,94h-.41a19.26,19.26,0,0,1-1.85,3.72,12.37,12.37,0,0,1-2.92,3.16,13.72,13.72,0,0,1-4.22,2.16,18.14,18.14,0,0,1-5.67.81q-8.12.08-12.66-5.26t-4.47-15V50.33h11V82.24q0,12.14,10,12.14a15.36,15.36,0,0,0,4.11-.54,11.22,11.22,0,0,0,3.57-1.67,8.39,8.39,0,0,0,2.52-2.81,8,8,0,0,0,1-4v-35h10.94v52.17H435.74Z" transform="translate(0.39 -0.66)" fill="#003c40"></path>
  <path d="M465.41,41.05a6.6,6.6,0,0,1-5-1.6,5.62,5.62,0,0,1-1.56-4.12V33.62a5.61,5.61,0,0,1,1.56-4.11,6.65,6.65,0,0,1,5-1.61,6.49,6.49,0,0,1,4.93,1.61,5.77,5.77,0,0,1,1.5,4.11v1.71a5.78,5.78,0,0,1-1.5,4.12A6.55,6.55,0,0,1,465.41,41.05Zm-5.52,9.32h10.94v52.2H459.89Z" transform="translate(0.39 -0.66)" fill="#003c40"></path>
  <path d="M495.14,102.57c-3.76,0-6.55-1-8.39-2.86a11,11,0,0,1-2.75-8V28.3h10.94V93.69h7.23v8.88Z" transform="translate(0.39 -0.66)" fill="#003c40"></path>
  <path d="M542.94,94h-.5a14.57,14.57,0,0,1-5.58,7.26,15.82,15.82,0,0,1-9.08,2.66q-9.94,0-15.38-7.19T507,76.58q0-13,5.41-20.14t15.38-7.18a16.13,16.13,0,0,1,9.08,2.56,14.32,14.32,0,0,1,5.58,7.28h.5V28.3h10.95v74.27H542.94Zm-11.84.4a14,14,0,0,0,8.42-2.46,7.64,7.64,0,0,0,3.42-6.49V67.57a7.61,7.61,0,0,0-3.42-6.47,13.89,13.89,0,0,0-8.42-2.46A12,12,0,0,0,522,62.3a13.65,13.65,0,0,0-3.4,9.65v9A13.71,13.71,0,0,0,522,90.68,11.88,11.88,0,0,0,531.1,94.38Z" transform="translate(0.39 -0.66)" fill="#003c40"></path>
</svg>
